{"accessors" : [{"bufferView" : 0, "byteOffset" : 0, "componentType" : 5123, "count" : 2184, "type" : "SCALAR", "max" : [2183], "min" : [0]}, {"bufferView" : 1, "byteOffset" : 0, "componentType" : 5126, "count" : 2184, "type" : "VEC3", "max" : [0.6652477979660034, 1.7448062896728516, 0.5211607813835144], "min" : [-0.6652477979660034, 0.7448062896728516, -0.5000001788139343], "name" : "POSITION"}, {"bufferView" : 1, "byteOffset" : 12, "componentType" : 5126, "count" : 2184, "type" : "VEC3", "max" : [1.0000044107437134, 1.0000044107437134, 1.0000044107437134], "min" : [-1.0000044107437134, -1.0000044107437134, -1.0000044107437134], "name" : "NORMAL"}, {"bufferView" : 1, "byteOffset" : 24, "componentType" : 5126, "count" : 2184, "type" : "VEC3", "max" : [1, 1, 1], "min" : [1, 1, 1], "name" : "COLOR_0"}, {"bufferView" : 1, "byteOffset" : 36, "componentType" : 5126, "count" : 2184, "type" : "VEC3", "max" : [1, 1, 1], "min" : [0.5372549295425415, 0, 1], "name" : "COLOR_1"}, {"bufferView" : 1, "byteOffset" : 48, "componentType" : 5126, "count" : 2184, "type" : "VEC2", "max" : [0.7184907793998718, -0.6868137717247009], "min" : [0.7179359197616577, -0.889212429523468], "name" : "TEXCOORD_0"}, {"bufferView" : 0, "byteOffset" : 4368, "componentType" : 5123, "count" : 3120, "type" : "SCALAR", "max" : [3119], "min" : [0]}, {"bufferView" : 2, "byteOffset" : 0, "componentType" : 5126, "count" : 3120, "type" : "VEC3", "max" : [0.652236819267273, 0.9091233611106873, 0.23060713708400726], "min" : [-0.652236819267273, 0.004525258671492338, -0.15342356264591217], "name" : "POSITION"}, {"bufferView" : 2, "byteOffset" : 12, "componentType" : 5126, "count" : 3120, "type" : "VEC3", "max" : [0.9997887015342712, 1.0000044107437134, 0.9953725337982178], "min" : [-0.9997886419296265, -1.0000044107437134, -0.9995921850204468], "name" : "NORMAL"}, {"bufferView" : 2, "byteOffset" : 24, "componentType" : 5126, "count" : 3120, "type" : "VEC3", "max" : [1, 1, 1], "min" : [1, 1, 1], "name" : "COLOR_0"}, {"bufferView" : 2, "byteOffset" : 36, "componentType" : 5126, "count" : 3120, "type" : "VEC3", "max" : [0.5372549295425415, 0, 1], "min" : [0.5372549295425415, 0, 1], "name" : "COLOR_1"}, {"bufferView" : 2, "byteOffset" : 48, "componentType" : 5126, "count" : 3120, "type" : "VEC2", "max" : [0.7179360389709473, -0.7211727499961853], "min" : [0.7179358601570129, -0.8084980249404907], "name" : "TEXCOORD_0"}, {"bufferView" : 0, "byteOffset" : 10608, "componentType" : 5123, "count" : 744, "type" : "SCALAR", "max" : [743], "min" : [0]}, {"bufferView" : 3, "byteOffset" : 0, "componentType" : 5126, "count" : 744, "type" : "VEC3", "max" : [0.34597671031951904, 1.4023828506469727, 0.4854795038700104], "min" : [-0.34597671031951904, 1.2891857624053955, 0.3239811062812805], "name" : "POSITION"}, {"bufferView" : 3, "byteOffset" : 12, "componentType" : 5126, "count" : 744, "type" : "VEC3", "max" : [0.9971372485160828, 0.998235285282135, 0.9741036891937256], "min" : [-0.9971372485160828, -0.9979062676429749, -0.9734142422676086], "name" : "NORMAL"}, {"bufferView" : 3, "byteOffset" : 24, "componentType" : 5126, "count" : 744, "type" : "VEC3", "max" : [1, 1, 1], "min" : [1, 1, 1], "name" : "COLOR_0"}, {"bufferView" : 3, "byteOffset" : 36, "componentType" : 5126, "count" : 744, "type" : "VEC3", "max" : [0.5372549295425415, 0, 1], "min" : [0.5372549295425415, 0, 1], "name" : "COLOR_1"}, {"bufferView" : 3, "byteOffset" : 48, "componentType" : 5126, "count" : 744, "type" : "VEC2", "max" : [0.5285813808441162, -0.14752823114395142], "min" : [0.5285813808441162, -0.16192269325256348], "name" : "TEXCOORD_0"}, {"bufferView" : 0, "byteOffset" : 12096, "componentType" : 5123, "count" : 1152, "type" : "SCALAR", "max" : [1151], "min" : [0]}, {"bufferView" : 4, "byteOffset" : 0, "componentType" : 5126, "count" : 1152, "type" : "VEC3", "max" : [0.31330567598342896, 1.2927401065826416, 0.4991963803768158], "min" : [-0.31330567598342896, 1.0504930019378662, 0.3488657474517822], "name" : "POSITION"}, {"bufferView" : 4, "byteOffset" : 12, "componentType" : 5126, "count" : 1152, "type" : "VEC3", "max" : [0.9673429131507874, 0.9864360690116882, 0.9923151135444641], "min" : [-0.9673429131507874, -0.9864364266395569, -0.9923152327537537], "name" : "NORMAL"}, {"bufferView" : 4, "byteOffset" : 24, "componentType" : 5126, "count" : 1152, "type" : "VEC3", "max" : [1, 1, 1], "min" : [1, 1, 1], "name" : "COLOR_0"}, {"bufferView" : 4, "byteOffset" : 36, "componentType" : 5126, "count" : 1152, "type" : "VEC3", "max" : [0.5372549295425415, 0, 1], "min" : [0.5372549295425415, 0, 1], "name" : "COLOR_1"}, {"bufferView" : 4, "byteOffset" : 48, "componentType" : 5126, "count" : 1152, "type" : "VEC2", "max" : [0.47185763716697693, -0.41920676827430725], "min" : [0.47185763716697693, -0.47518250346183777], "name" : "TEXCOORD_0"}, {"bufferView" : 0, "byteOffset" : 14400, "componentType" : 5123, "count" : 1152, "type" : "SCALAR", "max" : [1151], "min" : [0]}, {"bufferView" : 5, "byteOffset" : 0, "componentType" : 5126, "count" : 1152, "type" : "VEC3", "max" : [0.29061487317085266, 1.2403621673583984, 0.5078194737434387], "min" : [-0.29061487317085266, 1.086402416229248, 0.43183013796806335], "name" : "POSITION"}, {"bufferView" : 5, "byteOffset" : 12, "componentType" : 5126, "count" : 1152, "type" : "VEC3", "max" : [0.9255815744400024, 0.9864356517791748, 0.9973530173301697], "min" : [-0.9255813360214233, -0.9864356517791748, -0.9973532557487488], "name" : "NORMAL"}, {"bufferView" : 5, "byteOffset" : 24, "componentType" : 5126, "count" : 1152, "type" : "VEC3", "max" : [1, 1, 1], "min" : [1, 1, 1], "name" : "COLOR_0"}, {"bufferView" : 5, "byteOffset" : 36, "componentType" : 5126, "count" : 1152, "type" : "VEC3", "max" : [0.5372549295425415, 0, 1], "min" : [0.5372549295425415, 0, 1], "name" : "COLOR_1"}, {"bufferView" : 5, "byteOffset" : 48, "componentType" : 5126, "count" : 1152, "type" : "VEC2", "max" : [0.911493182182312, -0.5274080038070679], "min" : [0.911493182182312, -0.5833837985992432], "name" : "TEXCOORD_0"}, {"bufferView" : 0, "byteOffset" : 16704, "componentType" : 5123, "count" : 1800, "type" : "SCALAR", "max" : [1799], "min" : [0]}, {"bufferView" : 6, "byteOffset" : 0, "componentType" : 5126, "count" : 1800, "type" : "VEC3", "max" : [0.5483535528182983, 1.9258315563201904, 0.5882547497749329], "min" : [-0.538115918636322, 0.9287336468696594, -0.6514104008674622], "name" : "POSITION"}, {"bufferView" : 6, "byteOffset" : 12, "componentType" : 5126, "count" : 1800, "type" : "VEC3", "max" : [0.9997073411941528, 0.9990923404693604, 0.9999548196792603], "min" : [-0.9962922930717468, -0.9990788698196411, -0.9999207258224487], "name" : "NORMAL"}, {"bufferView" : 6, "byteOffset" : 24, "componentType" : 5126, "count" : 1800, "type" : "VEC2", "max" : [0.528581440448761, -0.11250144243240356], "min" : [0.5285813212394714, -0.16533297300338745], "name" : "TEXCOORD_0"}, {"bufferView" : 0, "byteOffset" : 20304, "componentType" : 5123, "count" : 312, "type" : "SCALAR", "max" : [311], "min" : [0]}, {"bufferView" : 7, "byteOffset" : 0, "componentType" : 5126, "count" : 312, "type" : "VEC3", "max" : [0.15360918641090393, 0.9830134510993958, 0.3919336199760437], "min" : [0.014269381761550903, 0.8943800926208496, 0.3296964466571808], "name" : "POSITION"}, {"bufferView" : 7, "byteOffset" : 12, "componentType" : 5126, "count" : 312, "type" : "VEC3", "max" : [0.9547759294509888, 0.9986929893493652, 0.9921483397483826], "min" : [-0.990953803062439, -0.9012017846107483, -0.9994760751724243], "name" : "NORMAL"}, {"bufferView" : 7, "byteOffset" : 24, "componentType" : 5126, "count" : 312, "type" : "VEC2", "max" : [0.713100790977478, -0.6974561810493469], "min" : [0.713100790977478, -0.7398331165313721], "name" : "TEXCOORD_0"}, {"bufferView" : 0, "byteOffset" : 20928, "componentType" : 5123, "count" : 1524, "type" : "SCALAR", "max" : [1523], "min" : [0]}, {"bufferView" : 8, "byteOffset" : 0, "componentType" : 5126, "count" : 1524, "type" : "VEC3", "max" : [0.20028892159461975, 0.07028591632843018, 0.24213933944702148], "min" : [-0.20028893649578094, -0.0043048858642578125, -0.06425756216049194], "name" : "POSITION"}, {"bufferView" : 8, "byteOffset" : 12, "componentType" : 5126, "count" : 1524, "type" : "VEC3", "max" : [0.9938714504241943, 0.9995092749595642, 0.9966766238212585], "min" : [-0.9938715100288391, -1.0000041723251343, -0.9966765642166138], "name" : "NORMAL"}, {"bufferView" : 8, "byteOffset" : 24, "componentType" : 5126, "count" : 1524, "type" : "VEC3", "max" : [1, 1, 1], "min" : [1, 1, 1], "name" : "COLOR_0"}, {"bufferView" : 8, "byteOffset" : 36, "componentType" : 5126, "count" : 1524, "type" : "VEC3", "max" : [0.5372549295425415, 0, 1], "min" : [0.5372549295425415, 0, 1], "name" : "COLOR_1"}, {"bufferView" : 8, "byteOffset" : 48, "componentType" : 5126, "count" : 1524, "type" : "VEC2", "max" : [0.53267902135849, -0.024564668536186218], "min" : [0.5326788425445557, -0.04865984618663788], "name" : "TEXCOORD_0"}, {"bufferView" : 0, "byteOffset" : 23976, "componentType" : 5123, "count" : 1140, "type" : "SCALAR", "max" : [1139], "min" : [0]}, {"bufferView" : 9, "byteOffset" : 0, "componentType" : 5126, "count" : 1140, "type" : "VEC3", "max" : [0.3367787003517151, 0.9243110418319702, 0.22519049048423767], "min" : [-0.3367787003517151, 0.43383294343948364, -0.18384689092636108], "name" : "POSITION"}, {"bufferView" : 9, "byteOffset" : 12, "componentType" : 5126, "count" : 1140, "type" : "VEC3", "max" : [0.9932254552841187, 0.9995922446250916, 0.9935634732246399], "min" : [-0.9932253956794739, -0.978778600692749, -0.9997025728225708], "name" : "NORMAL"}, {"bufferView" : 9, "byteOffset" : 24, "componentType" : 5126, "count" : 1140, "type" : "VEC3", "max" : [1, 1, 1], "min" : [1, 1, 1], "name" : "COLOR_0"}, {"bufferView" : 9, "byteOffset" : 36, "componentType" : 5126, "count" : 1140, "type" : "VEC3", "max" : [0.5372549295425415, 0, 1], "min" : [0.5372549295425415, 0, 1], "name" : "COLOR_1"}, {"bufferView" : 9, "byteOffset" : 48, "componentType" : 5126, "count" : 1140, "type" : "VEC2", "max" : [0.5344196557998657, -0.6169905066490173], "min" : [0.534419596195221, -0.7056826949119568], "name" : "TEXCOORD_0"}, {"bufferView" : 0, "byteOffset" : 26256, "componentType" : 5123, "count" : 780, "type" : "SCALAR", "max" : [779], "min" : [0]}, {"bufferView" : 10, "byteOffset" : 0, "componentType" : 5126, "count" : 780, "type" : "VEC3", "max" : [0.22614935040473938, 0.5194199085235596, 0.19230465590953827], "min" : [-0.22614935040473938, 0.2801947593688965, -0.16518042981624603], "name" : "POSITION"}, {"bufferView" : 10, "byteOffset" : 12, "componentType" : 5126, "count" : 780, "type" : "VEC3", "max" : [0.9954659342765808, 1.0000044107437134, 0.9640270471572876], "min" : [-0.9954659938812256, -0.9921543002128601, -0.9981955885887146], "name" : "NORMAL"}, {"bufferView" : 10, "byteOffset" : 24, "componentType" : 5126, "count" : 780, "type" : "VEC3", "max" : [1, 1, 1], "min" : [1, 1, 1], "name" : "COLOR_0"}, {"bufferView" : 10, "byteOffset" : 36, "componentType" : 5126, "count" : 780, "type" : "VEC3", "max" : [0.5372549295425415, 0, 1], "min" : [0.5372549295425415, 0, 1], "name" : "COLOR_1"}, {"bufferView" : 10, "byteOffset" : 48, "componentType" : 5126, "count" : 780, "type" : "VEC2", "max" : [0.6574589014053345, -0.5717188119888306], "min" : [0.6574589014053345, -0.668472170829773], "name" : "TEXCOORD_0"}], "asset" : {"generator" : "Aspose.3D 22.12", "version" : "2.0"}, "buffers" : [{"uri" : "data:application/octet-stream;base64,", "byteLength" : 756020}], "bufferViews" : [{"buffer" : 0, "byteOffset" : 0, "byteLength" : 27816, "target" : 34963}, {"buffer" : 0, "byteOffset" : 27820, "byteLength" : 122304, "byteStride" : 56, "target" : 34962}, {"buffer" : 0, "byteOffset" : 150128, "byteLength" : 174720, "byteStride" : 56, "target" : 34962}, {"buffer" : 0, "byteOffset" : 324852, "byteLength" : 41664, "byteStride" : 56, "target" : 34962}, {"buffer" : 0, "byteOffset" : 366520, "byteLength" : 64512, "byteStride" : 56, "target" : 34962}, {"buffer" : 0, "byteOffset" : 431036, "byteLength" : 64512, "byteStride" : 56, "target" : 34962}, {"buffer" : 0, "byteOffset" : 495552, "byteLength" : 57600, "byteStride" : 32, "target" : 34962}, {"buffer" : 0, "byteOffset" : 553156, "byteLength" : 9984, "byteStride" : 32, "target" : 34962}, {"buffer" : 0, "byteOffset" : 563144, "byteLength" : 85344, "byteStride" : 56, "target" : 34962}, {"buffer" : 0, "byteOffset" : 648492, "byteLength" : 63840, "byteStride" : 56, "target" : 34962}, {"buffer" : 0, "byteOffset" : 712336, "byteLength" : 43680, "byteStride" : 56, "target" : 34962}], "images" : [{"uri" : "data:image/png;base64,"}, {"uri" : "data:image/png;base64,"}], "materials" : [{"name" : "puppet material", "pbrMetallicRoughness" : {"baseColorFactor" : [0.800000011920929, 0.800000011920929, 0.800000011920929, 1], "baseColorTexture" : {"index" : 0, "texCoord" : 0}, "metallicFactor" : 0, "roughnessFactor" : 0}, "emissiveFactor" : [0, 0, 0], "alphaMode" : "OPAQUE", "doubleSided" : false}, {"name" : "puppet material", "pbrMetallicRoughness" : {"baseColorFactor" : [0.800000011920929, 0.800000011920929, 0.800000011920929, 1], "baseColorTexture" : {"index" : 0, "texCoord" : 0}, "metallicFactor" : 0, "roughnessFactor" : 0}, "emissiveFactor" : [0, 0, 0], "alphaMode" : "OPAQUE", "doubleSided" : false}, {"name" : "puppet material", "pbrMetallicRoughness" : {"baseColorFactor" : [0.800000011920929, 0.800000011920929, 0.800000011920929, 1], "baseColorTexture" : {"index" : 0, "texCoord" : 0}, "metallicFactor" : 0, "roughnessFactor" : 0}, "emissiveFactor" : [0, 0, 0], "alphaMode" : "OPAQUE", "doubleSided" : false}, {"name" : "puppet material", "pbrMetallicRoughness" : {"baseColorFactor" : [0.800000011920929, 0.800000011920929, 0.800000011920929, 1], "baseColorTexture" : {"index" : 0, "texCoord" : 0}, "metallicFactor" : 0, "roughnessFactor" : 0}, "emissiveFactor" : [0, 0, 0], "alphaMode" : "OPAQUE", "doubleSided" : false}, {"name" : "puppet material secondary", "pbrMetallicRoughness" : {"baseColorFactor" : [0.800000011920929, 0.800000011920929, 0.800000011920929, 1], "baseColorTexture" : {"index" : 1, "texCoord" : 0}, "metallicFactor" : 0, "roughnessFactor" : 0}, "emissiveFactor" : [0, 0, 0], "alphaMode" : "OPAQUE", "doubleSided" : false}, {"name" : "puppet material", "pbrMetallicRoughness" : {"baseColorFactor" : [0.800000011920929, 0.800000011920929, 0.800000011920929, 1], "baseColorTexture" : {"index" : 0, "texCoord" : 0}, "metallicFactor" : 0, "roughnessFactor" : 0}, "emissiveFactor" : [0, 0, 0], "alphaMode" : "OPAQUE", "doubleSided" : false}, {"name" : "puppet material", "pbrMetallicRoughness" : {"baseColorFactor" : [0.800000011920929, 0.800000011920929, 0.800000011920929, 1], "baseColorTexture" : {"index" : 0, "texCoord" : 0}, "metallicFactor" : 0, "roughnessFactor" : 0}, "emissiveFactor" : [0, 0, 0], "alphaMode" : "OPAQUE", "doubleSided" : false}, {"name" : "puppet material", "pbrMetallicRoughness" : {"baseColorFactor" : [0.800000011920929, 0.800000011920929, 0.800000011920929, 1], "baseColorTexture" : {"index" : 0, "texCoord" : 0}, "metallicFactor" : 0, "roughnessFactor" : 0}, "emissiveFactor" : [0, 0, 0], "alphaMode" : "OPAQUE", "doubleSided" : false}, {"name" : "puppet material", "pbrMetallicRoughness" : {"baseColorFactor" : [0.800000011920929, 0.800000011920929, 0.800000011920929, 1], "baseColorTexture" : {"index" : 0, "texCoord" : 0}, "metallicFactor" : 0, "roughnessFactor" : 0}, "emissiveFactor" : [0, 0, 0], "alphaMode" : "OPAQUE", "doubleSided" : false}, {"name" : "puppet material", "pbrMetallicRoughness" : {"baseColorFactor" : [0.800000011920929, 0.800000011920929, 0.800000011920929, 1], "baseColorTexture" : {"index" : 0, "texCoord" : 0}, "metallicFactor" : 0, "roughnessFactor" : 0}, "emissiveFactor" : [0, 0, 0], "alphaMode" : "OPAQUE", "doubleSided" : false}], "meshes" : [{"primitives" : [{"attributes" : {"POSITION" : 1, "NORMAL" : 2, "COLOR_0" : 3, "COLOR_1" : 4, "TEXCOORD_0" : 5}, "indices" : 0, "material" : 0, "mode" : 4}], "name" : "head"}, {"primitives" : [{"attributes" : {"POSITION" : 7, "NORMAL" : 8, "COLOR_0" : 9, "COLOR_1" : 10, "TEXCOORD_0" : 11}, "indices" : 6, "material" : 1, "mode" : 4}], "name" : "body"}, {"primitives" : [{"attributes" : {"POSITION" : 13, "NORMAL" : 14, "COLOR_0" : 15, "COLOR_1" : 16, "TEXCOORD_0" : 17}, "indices" : 12, "material" : 2, "mode" : 4}], "name" : "eyebrows"}, {"primitives" : [{"attributes" : {"POSITION" : 19, "NORMAL" : 20, "COLOR_0" : 21, "COLOR_1" : 22, "TEXCOORD_0" : 23}, "indices" : 18, "material" : 3, "mode" : 4}, {"attributes" : {"POSITION" : 25, "NORMAL" : 26, "COLOR_0" : 27, "COLOR_1" : 28, "TEXCOORD_0" : 29}, "indices" : 24, "material" : 4, "mode" : 4}], "name" : "eyes"}, {"primitives" : [{"attributes" : {"POSITION" : 31, "NORMAL" : 32, "TEXCOORD_0" : 33}, "indices" : 30, "material" : 5, "mode" : 4}], "name" : "hair"}, {"primitives" : [{"attributes" : {"POSITION" : 35, "NORMAL" : 36, "TEXCOORD_0" : 37}, "indices" : 34, "material" : 6, "mode" : 4}], "name" : "mouth"}, {"primitives" : [{"attributes" : {"POSITION" : 39, "NORMAL" : 40, "COLOR_0" : 41, "COLOR_1" : 42, "TEXCOORD_0" : 43}, "indices" : 38, "material" : 7, "mode" : 4}], "name" : "slippers"}, {"primitives" : [{"attributes" : {"POSITION" : 45, "NORMAL" : 46, "COLOR_0" : 47, "COLOR_1" : 48, "TEXCOORD_0" : 49}, "indices" : 44, "material" : 8, "mode" : 4}], "name" : "shirt"}, {"primitives" : [{"attributes" : {"POSITION" : 51, "NORMAL" : 52, "COLOR_0" : 53, "COLOR_1" : 54, "TEXCOORD_0" : 55}, "indices" : 50, "material" : 9, "mode" : 4}], "name" : "shorts"}], "nodes" : [{"matrix" : [1, 0, 0, 0, 0, 0.9999999999999867, 1.6292068494294582E-07, 0, 0, -1.6292068494294582E-07, 0.9999999999999867, 0, 0, 0, 0, 1], "mesh" : 0, "name" : "head"}, {"matrix" : [1, 0, 0, 0, 0, 0.9999999999999867, 1.6292068494294582E-07, 0, 0, -1.6292068494294582E-07, 0.9999999999999867, 0, 0, 0, 0, 1], "mesh" : 1, "name" : "body"}, {"matrix" : [1, 0, 0, 0, 0, 0.9999999999999867, 1.6292068494294582E-07, 0, 0, -1.6292068494294582E-07, 0.9999999999999867, 0, 0, 0, 0, 1], "mesh" : 2, "name" : "eyebrows"}, {"matrix" : [1, 0, 0, 0, 0, 0.9999999999999867, 1.6292068494294582E-07, 0, 0, -1.6292068494294582E-07, 0.9999999999999867, 0, 0, 0, 0, 1], "mesh" : 3, "name" : "eyes"}, {"matrix" : [1, 0, 0, 0, 0, 0.9999999999999867, 1.6292068494294582E-07, 0, 0, -1.6292068494294582E-07, 0.9999999999999867, 0, 0, 0, 0, 1], "mesh" : 4, "name" : "hair"}, {"matrix" : [1, 0, 0, 0, 0, 0.9999999999999867, 1.6292068494294582E-07, 0, 0, -1.6292068494294582E-07, 0.9999999999999867, 0, 0, 0, 0, 1], "mesh" : 5, "name" : "mouth"}, {"matrix" : [1, 0, 0, 0, 0, 0.9999999999999867, 1.6292068494294582E-07, 0, 0, -1.6292068494294582E-07, 0.9999999999999867, 0, 0, 0, 0, 1], "mesh" : 6, "name" : "slippers"}, {"matrix" : [1, 0, 0, 0, 0, 0.9999999999999867, 1.6292068494294582E-07, 0, 0, -1.6292068494294582E-07, 0.9999999999999867, 0, 0, 0, 0, 1], "mesh" : 7, "name" : "shirt"}, {"matrix" : [1, 0, 0, 0, 0, 0.9999999999999867, 1.6292068494294582E-07, 0, 0, -1.6292068494294582E-07, 0.9999999999999867, 0, 0, 0, 0, 1], "mesh" : 8, "name" : "shorts"}], "samplers" : [{"magFilter" : 9729, "minFilter" : 9729, "wrapS" : 10497, "wrapT" : 10497}, {"magFilter" : 9729, "minFilter" : 9729, "wrapS" : 10497, "wrapT" : 10497}], "scene" : 0, "scenes" : [{"nodes" : [0, 1, 2, 3, 4, 5, 6, 7, 8]}], "textures" : [{"sampler" : 0, "source" : 0, "name" : "base_color_texture"}, {"sampler" : 1, "source" : 1, "name" : "base_color_texture"}]}